# xmcd CD database file
#
# Track frame offsets:
#	150
#	20913
#	43737
#	60337
#	90038
#	108210
#	130012
#	150555
#
# Disc length: 2260 seconds
#
# Revision: 0
# Processed by: cddbd v1.5.2PL0 Copyright (c) Steve Scherf et al.
# Submitted via: CDex 1.51
#
DISCID=5408d208
DTITLE=Antony Santos - Vete
DYEAR=2008
DGENRE=Merengue
TTITLE0=Vete y Alejate De Mi (Bachata)
TTITLE1=La Boquita Colorá (Merengue)
TTITLE2=Y Antes De Irme (Bachata)
TTITLE3=La Juma (Si yo me muero con este jumo) (Merengue)
TTITLE4=No Nos Vamos A Olvidar (Bachata)
TTITLE5=Toma Y Dame (Merengue)
TTITLE6=Viejo Amor (Bachata)
TTITLE7=Prepárate (Merengue)
EXTD=YEAR: 2008
EXTT0=
EXTT1=
EXTT2=
EXTT3=
EXTT4=
EXTT5=
EXTT6=
EXTT7=
PLAYORDER=
